<svg xmlns="http://www.w3.org/2000/svg" width="24" height="24" viewBox="0 0 24 24" fill="none">
  <path fill="#0C66E4" opacity="0.18" d="M4 15a2 2 0 1 0 0 4 2 2 0 0 0 0-4zm6-8a2 2 0 1 0 0 4 2 2 0 0 0 0-4zm5 6a2 2 0 1 0 0 4 2 2 0 0 0 0-4zm5-10a2 2 0 1 0 0 4 2 2 0 0 0 0-4z"/>
  <path fill="#0C66E4" opacity="0.92" d="M20 2a3 3 0 0 1 1.9 5.32l-4.38 6.13A3 3 0 0 1 12.3 16L6.87 17.8A3 3 0 1 1 6.24 16l5.43-1.8A3 3 0 0 1 13.6 12l-2.32-2.08A3 3 0 0 1 7.8 9.5l-2.7 5.4-1.8-.9 2.7-5.4A3 3 0 1 1 12.7 8.43L15 10.5a3 3 0 0 1 .9-.42l4.38-6.13A3 3 0 0 1 20 2zM4 16.5a1 1 0 1 0 0 2 1 1 0 0 0 0-2zm6-8a1 1 0 1 0 0 2 1 1 0 0 0 0-2zm5 5.5a1 1 0 1 0 0 2 1 1 0 0 0 0-2zm5-10a1 1 0 1 0 0 2 1 1 0 0 0 0-2z"/>
</svg>
