<svg xmlns="http://www.w3.org/2000/svg" height="24" viewBox="0 -960 960 960" width="24" fill="#D0BCFF"><path d="M480-120q-137 0-244.5-56T128-320v-320q0-88 107.5-144T480-840q137 0 244.5 56T832-640v320q0 88-107.5 144T480-120Zm0-80q120 0 207.5-45T752-320q-36-23-100-39t-172-16q-108 0-172 16t-100 39q27 30 114.5 75T480-200Zm0-186q109 0 173-16t100-38v-80q-35 21-100 37.5T480-466q-109 0-173.5-16.5T208-520v80q36 22 100 38t172 16Zm0-188q116 0 162.5-16.5T689-620q-19-12-66-28.5T480-665q-114 0-161.5 16.5T171-620q19 12 79.5 29t229.5 17Z"/></svg>
