<svg xmlns="http://www.w3.org/2000/svg" width="24" height="24" viewBox="0 0 24 24" fill="none">
  <path fill="#0C66E4" opacity="0.18" d="M6.1 18.2A7.7 7.7 0 0 1 12 15.5a7.7 7.7 0 0 1 5.9 2.7A8 8 0 0 1 6.1 18.2z"/>
  <path fill="#0C66E4" opacity="0.92" d="M12 2a10 10 0 1 1 0 20 10 10 0 0 1 0-20zm0 2a8 8 0 0 0-6.15 13.12A8.95 8.95 0 0 1 12 14.75a8.95 8.95 0 0 1 6.15 2.37A8 8 0 0 0 12 4zm0 12.75a6.95 6.95 0 0 0-4.58 1.69A7.96 7.96 0 0 0 12 20a7.96 7.96 0 0 0 4.58-1.56A6.95 6.95 0 0 0 12 16.75zm0-10.75a3.75 3.75 0 1 1 0 7.5 3.75 3.75 0 0 1 0-7.5zm0 2a1.75 1.75 0 1 0 0 3.5 1.75 1.75 0 0 0 0-3.5z"/>
</svg>
