<svg xmlns="http://www.w3.org/2000/svg" width="24" height="24" viewBox="0 0 24 24" fill="none">
  <path fill="#0C66E4" opacity="0.18" d="M12 3a9 9 0 0 0 0 18c.9 0 1.5-.42 1.5-1.1 0-.35-.18-.72-.38-1.13-.25-.52-.52-1.08-.52-1.77 0-1.66 1.34-3 3-3h1.4a4 4 0 0 0 4-4c0-3.87-4.03-7-9-7z"/>
  <path fill="#0C66E4" opacity="0.92" d="M12 2c5.52 0 10 3.58 10 8 0 2.76-2.24 5-5 5h-1.4c-.55 0-1 .45-1 1 0 .28.16.62.35 1.02.25.53.55 1.16.55 1.88 0 1.87-1.57 3.1-3.5 3.1C6.48 22 2 17.52 2 12S6.48 2 12 2zm0 2a8 8 0 0 0 0 16c.84 0 1.5-.42 1.5-1.1 0-.28-.16-.62-.35-1.02-.25-.53-.55-1.16-.55-1.88a3 3 0 0 1 3-3H17a3 3 0 0 0 3-3c0-3.31-3.58-6-8-6zM6.75 11a1.25 1.25 0 1 1 0-2.5 1.25 1.25 0 0 1 0 2.5zm3-3.5a1.25 1.25 0 1 1 0-2.5 1.25 1.25 0 0 1 0 2.5zm4.5 0a1.25 1.25 0 1 1 0-2.5 1.25 1.25 0 0 1 0 2.5zm3 3.5a1.25 1.25 0 1 1 0-2.5 1.25 1.25 0 0 1 0 2.5z"/>
</svg>
