<svg xmlns="http://www.w3.org/2000/svg" width="24" height="24" viewBox="0 0 24 24" fill="none">
  <path fill="#0C66E4" opacity="0.18" d="M4 6.5c0 1.38 3.58 2.5 8 2.5s8-1.12 8-2.5v11c0 1.38-3.58 2.5-8 2.5s-8-1.12-8-2.5z"/>
  <path fill="#0C66E4" opacity="0.92" d="M12 3c4.97 0 9 1.57 9 3.5v11c0 1.93-4.03 3.5-9 3.5s-9-1.57-9-3.5v-11C3 4.57 7.03 3 12 3zm0 2c-3.79 0-6.12.87-6.83 1.5C5.88 7.13 8.21 8 12 8s6.12-.87 6.83-1.5C18.12 5.87 15.79 5 12 5zM5 9.25v3.25c.62.66 3.02 1.5 7 1.5s6.38-.84 7-1.5V9.25C17.4 9.73 15.02 10 12 10s-5.4-.27-7-.75zm0 6v2.25c.62.66 3.02 1.5 7 1.5s6.38-.84 7-1.5v-2.25c-1.6.48-3.98.75-7 .75s-5.4-.27-7-.75z"/>
</svg>
