<svg xmlns="http://www.w3.org/2000/svg" width="100%" height="auto" viewBox="0 0 900 249" preserveAspectRatio="xMidYMid meet" role="img" aria-label="GitHub contribution heatmap"><title>GitHub contribution heatmap</title><defs><linearGradient id="elev-heat" x1="0" y1="0" x2="0" y2="1"><stop offset="0%" stop-color="#161D2B"/><stop offset="100%" stop-color="#0E1420"/></linearGradient><clipPath id="clip-elev-heat"><rect x="1" y="1" width="898" height="247" rx="12"/></clipPath></defs><g clip-path="url(#clip-elev-heat)"><rect x="1" y="1" width="898" height="247" fill="url(#elev-heat)" stroke="#2A3348"/><rect x="1" y="1" width="4" height="247" fill="#E0A458"/><rect x="1" y="1" width="898" height="36" fill="#161D2B"/><circle cx="22" cy="18" r="4.5" fill="#3F4A63"/><circle cx="40" cy="18" r="4.5" fill="#3F4A63"/><circle cx="58" cy="18" r="4.5" fill="#3F4A63"/><text x="450" y="22" text-anchor="middle" font-family="'JetBrains Mono','Berkeley Mono',ui-monospace,SFMono-Regular,Menlo,Consolas,monospace" font-size="12" fill="#7C89A6">psql — @knownassurajit</text><line x1="1" y1="37" x2="899" y2="37" stroke="#2A3348"/><text x="28" y="62" font-family="'JetBrains Mono','Berkeley Mono',ui-monospace,SFMono-Regular,Menlo,Consolas,monospace" font-size="13" fill="#E0A458">surajit=#</text><text x="112" y="62" font-family="'JetBrains Mono','Berkeley Mono',ui-monospace,SFMono-Regular,Menlo,Consolas,monospace" font-size="13" fill="#E7EBF5">SELECT date, contributions FROM contribution_calendar;</text><line x1="28" y1="76" x2="872" y2="76" stroke="#2A3348"/><text x="56" y="118" text-anchor="end" font-family="'JetBrains Mono','Berkeley Mono',ui-monospace,SFMono-Regular,Menlo,Consolas,monospace" font-size="10" fill="#3F4A63">Mon</text><text x="56" y="148" text-anchor="end" font-family="'JetBrains Mono','Berkeley Mono',ui-monospace,SFMono-Regular,Menlo,Consolas,monospace" font-size="10" fill="#3F4A63">Wed</text><text x="56" y="178" text-anchor="end" font-family="'JetBrains Mono','Berkeley Mono',ui-monospace,SFMono-Regular,Menlo,Consolas,monospace" font-size="10" fill="#3F4A63">Fri</text><rect x="64" y="92" width="12" height="12" rx="2" fill="#1D2536"/><rect x="64" y="107" width="12" height="12" rx="2" fill="#1D2536"/><rect x="64" y="122" width="12" height="12" rx="2" fill="#1D2536"/><rect x="64" y="137" width="12" height="12" rx="2" fill="#1D2536"/><rect x="64" y="152" width="12" height="12" rx="2" fill="#1D2536"/><rect x="64" y="167" width="12" height="12" rx="2" fill="#1D2536"/><rect x="64" y="182" width="12" height="12" rx="2" fill="#1D2536"/><rect x="79" y="92" width="12" height="12" rx="2" fill="#1D2536"/><rect x="79" y="107" width="12" height="12" rx="2" fill="#1D2536"/><rect x="79" y="122" width="12" height="12" rx="2" fill="#1D2536"/><rect x="79" y="137" width="12" height="12" rx="2" fill="#1D2536"/><rect x="79" y="152" width="12" height="12" rx="2" fill="#1D2536"/><rect x="79" y="167" width="12" height="12" rx="2" fill="#1D2536"/><rect x="79" y="182" width="12" height="12" rx="2" fill="#1D2536"/><rect x="94" y="92" width="12" height="12" rx="2" fill="#1D2536"/><rect x="94" y="107" width="12" height="12" rx="2" fill="#1D2536"/><rect x="94" y="122" width="12" height="12" rx="2" fill="#1D2536"/><rect x="94" y="137" width="12" height="12" rx="2" fill="#1D2536"/><rect x="94" y="152" width="12" height="12" rx="2" fill="#1D2536"/><rect x="94" y="167" width="12" height="12" rx="2" fill="#1D2536"/><rect x="94" y="182" width="12" height="12" rx="2" fill="#1D2536"/><rect x="109" y="92" width="12" height="12" rx="2" fill="#1D2536"/><rect x="109" y="107" width="12" height="12" rx="2" fill="#1D2536"/><rect x="109" y="122" width="12" height="12" rx="2" fill="#1D2536"/><rect x="109" y="137" width="12" height="12" rx="2" fill="#1D2536"/><rect x="109" y="152" width="12" height="12" rx="2" fill="#1D2536"/><rect x="109" y="167" width="12" height="12" rx="2" fill="#1D2536"/><rect x="109" y="182" width="12" height="12" rx="2" fill="#1D2536"/><rect x="124" y="92" width="12" height="12" rx="2" fill="#1D2536"/><rect x="124" y="107" width="12" height="12" rx="2" fill="#1D2536"/><rect x="124" y="122" width="12" height="12" rx="2" fill="#1D2536"/><rect x="124" y="137" width="12" height="12" rx="2" fill="#1D2536"/><rect x="124" y="152" width="12" height="12" rx="2" fill="#1D2536"/><rect x="124" y="167" width="12" height="12" rx="2" fill="#1D2536"/><rect x="124" y="182" width="12" height="12" rx="2" fill="#1D2536"/><rect x="139" y="92" width="12" height="12" rx="2" fill="#1D2536"/><rect x="139" y="107" width="12" height="12" rx="2" fill="#1D2536"/><rect x="139" y="122" width="12" height="12" rx="2" fill="#1D2536"/><rect x="139" y="137" width="12" height="12" rx="2" fill="#1D2536"/><rect x="139" y="152" width="12" height="12" rx="2" fill="#1D2536"/><rect x="139" y="167" width="12" height="12" rx="2" fill="#1D2536"/><rect x="139" y="182" width="12" height="12" rx="2" fill="#1D2536"/><rect x="154" y="92" width="12" height="12" rx="2" fill="#1D2536"/><rect x="154" y="107" width="12" height="12" rx="2" fill="#1D2536"/><rect x="154" y="122" width="12" height="12" rx="2" fill="#1D2536"/><rect x="154" y="137" width="12" height="12" rx="2" fill="#1D2536"/><rect x="154" y="152" width="12" height="12" rx="2" fill="#1D2536"/><rect x="154" y="167" width="12" height="12" rx="2" fill="#1D2536"/><rect x="154" y="182" width="12" height="12" rx="2" fill="#1D2536"/><rect x="169" y="92" width="12" height="12" rx="2" fill="#1D2536"/><rect x="169" y="107" width="12" height="12" rx="2" fill="#1D2536"/><rect x="169" y="122" width="12" height="12" rx="2" fill="#1D2536"/><rect x="169" y="137" width="12" height="12" rx="2" fill="#1D2536"/><rect x="169" y="152" width="12" height="12" rx="2" fill="#1D2536"/><rect x="169" y="167" width="12" height="12" rx="2" fill="#1D2536"/><rect x="169" y="182" width="12" height="12" rx="2" fill="#1D2536"/><rect x="184" y="92" width="12" height="12" rx="2" fill="#1D2536"/><rect x="184" y="107" width="12" height="12" rx="2" fill="#1D2536"/><rect x="184" y="122" width="12" height="12" rx="2" fill="#1D2536"/><rect x="184" y="137" width="12" height="12" rx="2" fill="#1D2536"/><rect x="184" y="152" width="12" height="12" rx="2" fill="#1D2536"/><rect x="184" y="167" width="12" height="12" rx="2" fill="#1D2536"/><rect x="184" y="182" width="12" height="12" rx="2" fill="#1D2536"/><rect x="199" y="92" width="12" height="12" rx="2" fill="#1D2536"/><rect x="199" y="107" width="12" height="12" rx="2" fill="#1D2536"/><rect x="199" y="122" width="12" height="12" rx="2" fill="#1D2536"/><rect x="199" y="137" width="12" height="12" rx="2" fill="#1D2536"/><rect x="199" y="152" width="12" height="12" rx="2" fill="#1D2536"/><rect x="199" y="167" width="12" height="12" rx="2" fill="#1D2536"/><rect x="199" y="182" width="12" height="12" rx="2" fill="#1D2536"/><rect x="214" y="92" width="12" height="12" rx="2" fill="#1D2536"/><rect x="214" y="107" width="12" height="12" rx="2" fill="#1D2536"/><rect x="214" y="122" width="12" height="12" rx="2" fill="#1D2536"/><rect x="214" y="137" width="12" height="12" rx="2" fill="#1D2536"/><rect x="214" y="152" width="12" height="12" rx="2" fill="#1D2536"/><rect x="214" y="167" width="12" height="12" rx="2" fill="#1D2536"/><rect x="214" y="182" width="12" height="12" rx="2" fill="#1D2536"/><rect x="229" y="92" width="12" height="12" rx="2" fill="#1D2536"/><rect x="229" y="107" width="12" height="12" rx="2" fill="#1D2536"/><rect x="229" y="122" width="12" height="12" rx="2" fill="#1D2536"/><rect x="229" y="137" width="12" height="12" rx="2" fill="#1D2536"/><rect x="229" y="152" width="12" height="12" rx="2" fill="#1D2536"/><rect x="229" y="167" width="12" height="12" rx="2" fill="#1D2536"/><rect x="229" y="182" width="12" height="12" rx="2" fill="#1D2536"/><rect x="244" y="92" width="12" height="12" rx="2" fill="#1D2536"/><rect x="244" y="107" width="12" height="12" rx="2" fill="#1D2536"/><rect x="244" y="122" width="12" height="12" rx="2" fill="#1D2536"/><rect x="244" y="137" width="12" height="12" rx="2" fill="#1D2536"/><rect x="244" y="152" width="12" height="12" rx="2" fill="#1D2536"/><rect x="244" y="167" width="12" height="12" rx="2" fill="#1D2536"/><rect x="244" y="182" width="12" height="12" rx="2" fill="#1D2536"/><rect x="259" y="92" width="12" height="12" rx="2" fill="#1D2536"/><rect x="259" y="107" width="12" height="12" rx="2" fill="#1D2536"/><rect x="259" y="122" width="12" height="12" rx="2" fill="#1D2536"/><rect x="259" y="137" width="12" height="12" rx="2" fill="#1D2536"/><rect x="259" y="152" width="12" height="12" rx="2" fill="#1D2536"/><rect x="259" y="167" width="12" height="12" rx="2" fill="#1D2536"/><rect x="259" y="182" width="12" height="12" rx="2" fill="#1D2536"/><rect x="274" y="92" width="12" height="12" rx="2" fill="#1D2536"/><rect x="274" y="107" width="12" height="12" rx="2" fill="#1D2536"/><rect x="274" y="122" width="12" height="12" rx="2" fill="#1D2536"/><rect x="274" y="137" width="12" height="12" rx="2" fill="#1D2536"/><rect x="274" y="152" width="12" height="12" rx="2" fill="#1D2536"/><rect x="274" y="167" width="12" height="12" rx="2" fill="#1D2536"/><rect x="274" y="182" width="12" height="12" rx="2" fill="#1D2536"/><rect x="289" y="92" width="12" height="12" rx="2" fill="#1D2536"/><rect x="289" y="107" width="12" height="12" rx="2" fill="#1D2536"/><rect x="289" y="122" width="12" height="12" rx="2" fill="#1D2536"/><rect x="289" y="137" width="12" height="12" rx="2" fill="#1D2536"/><rect x="289" y="152" width="12" height="12" rx="2" fill="#1D2536"/><rect x="289" y="167" width="12" height="12" rx="2" fill="#1D2536"/><rect x="289" y="182" width="12" height="12" rx="2" fill="#1D2536"/><rect x="304" y="92" width="12" height="12" rx="2" fill="#1D2536"/><rect x="304" y="107" width="12" height="12" rx="2" fill="#1D2536"/><rect x="304" y="122" width="12" height="12" rx="2" fill="#1D2536"/><rect x="304" y="137" width="12" height="12" rx="2" fill="#1D2536"/><rect x="304" y="152" width="12" height="12" rx="2" fill="#1D2536"/><rect x="304" y="167" width="12" height="12" rx="2" fill="#1D2536"/><rect x="304" y="182" width="12" height="12" rx="2" fill="#1D2536"/><rect x="319" y="92" width="12" height="12" rx="2" fill="#1D2536"/><rect x="319" y="107" width="12" height="12" rx="2" fill="#1D2536"/><rect x="319" y="122" width="12" height="12" rx="2" fill="#1D2536"/><rect x="319" y="137" width="12" height="12" rx="2" fill="#1D2536"/><rect x="319" y="152" width="12" height="12" rx="2" fill="#1D2536"/><rect x="319" y="167" width="12" height="12" rx="2" fill="#1D2536"/><rect x="319" y="182" width="12" height="12" rx="2" fill="#1D2536"/><rect x="334" y="92" width="12" height="12" rx="2" fill="#1D2536"/><rect x="334" y="107" width="12" height="12" rx="2" fill="#1D2536"/><rect x="334" y="122" width="12" height="12" rx="2" fill="#1D2536"/><rect x="334" y="137" width="12" height="12" rx="2" fill="#1D2536"/><rect x="334" y="152" width="12" height="12" rx="2" fill="#1D2536"/><rect x="334" y="167" width="12" height="12" rx="2" fill="#1D2536"/><rect x="334" y="182" width="12" height="12" rx="2" fill="#1D2536"/><rect x="349" y="92" width="12" height="12" rx="2" fill="#1D2536"/><rect x="349" y="107" width="12" height="12" rx="2" fill="#1D2536"/><rect x="349" y="122" width="12" height="12" rx="2" fill="#1D2536"/><rect x="349" y="137" width="12" height="12" rx="2" fill="#1D2536"/><rect x="349" y="152" width="12" height="12" rx="2" fill="#1D2536"/><rect x="349" y="167" width="12" height="12" rx="2" fill="#1D2536"/><rect x="349" y="182" width="12" height="12" rx="2" fill="#1D2536"/><rect x="364" y="92" width="12" height="12" rx="2" fill="#1D2536"/><rect x="364" y="107" width="12" height="12" rx="2" fill="#1D2536"/><rect x="364" y="122" width="12" height="12" rx="2" fill="#1D2536"/><rect x="364" y="137" width="12" height="12" rx="2" fill="#1D2536"/><rect x="364" y="152" width="12" height="12" rx="2" fill="#1D2536"/><rect x="364" y="167" width="12" height="12" rx="2" fill="#1D2536"/><rect x="364" y="182" width="12" height="12" rx="2" fill="#1D2536"/><rect x="379" y="92" width="12" height="12" rx="2" fill="#1D2536"/><rect x="379" y="107" width="12" height="12" rx="2" fill="#1D2536"/><rect x="379" y="122" width="12" height="12" rx="2" fill="#1D2536"/><rect x="379" y="137" width="12" height="12" rx="2" fill="#1D2536"/><rect x="379" y="152" width="12" height="12" rx="2" fill="#1D2536"/><rect x="379" y="167" width="12" height="12" rx="2" fill="#1D2536"/><rect x="379" y="182" width="12" height="12" rx="2" fill="#1D2536"/><rect x="394" y="92" width="12" height="12" rx="2" fill="#1D2536"/><rect x="394" y="107" width="12" height="12" rx="2" fill="#1D2536"/><rect x="394" y="122" width="12" height="12" rx="2" fill="#1D2536"/><rect x="394" y="137" width="12" height="12" rx="2" fill="#1D2536"/><rect x="394" y="152" width="12" height="12" rx="2" fill="#1D2536"/><rect x="394" y="167" width="12" height="12" rx="2" fill="#1D2536"/><rect x="394" y="182" width="12" height="12" rx="2" fill="#1D2536"/><rect x="409" y="92" width="12" height="12" rx="2" fill="#1D2536"/><rect x="409" y="107" width="12" height="12" rx="2" fill="#1D2536"/><rect x="409" y="122" width="12" height="12" rx="2" fill="#1D2536"/><rect x="409" y="137" width="12" height="12" rx="2" fill="#1D2536"/><rect x="409" y="152" width="12" height="12" rx="2" fill="#1D2536"/><rect x="409" y="167" width="12" height="12" rx="2" fill="#1D2536"/><rect x="409" y="182" width="12" height="12" rx="2" fill="#1D2536"/><rect x="424" y="92" width="12" height="12" rx="2" fill="#3F4A63"/><rect x="424" y="107" width="12" height="12" rx="2" fill="#3F4A63"/><rect x="424" y="122" width="12" height="12" rx="2" fill="#1D2536"/><rect x="424" y="137" width="12" height="12" rx="2" fill="#3F4A63"/><rect x="424" y="152" width="12" height="12" rx="2" fill="#3F4A63"/><rect x="424" y="167" width="12" height="12" rx="2" fill="#1D2536"/><rect x="424" y="182" width="12" height="12" rx="2" fill="#1D2536"/><rect x="439" y="92" width="12" height="12" rx="2" fill="#1D2536"/><rect x="439" y="107" width="12" height="12" rx="2" fill="#1D2536"/><rect x="439" y="122" width="12" height="12" rx="2" fill="#1D2536"/><rect x="439" y="137" width="12" height="12" rx="2" fill="#1D2536"/><rect x="439" y="152" width="12" height="12" rx="2" fill="#1D2536"/><rect x="439" y="167" width="12" height="12" rx="2" fill="#1D2536"/><rect x="439" y="182" width="12" height="12" rx="2" fill="#1D2536"/><rect x="454" y="92" width="12" height="12" rx="2" fill="#1D2536"/><rect x="454" y="107" width="12" height="12" rx="2" fill="#1D2536"/><rect x="454" y="122" width="12" height="12" rx="2" fill="#1D2536"/><rect x="454" y="137" width="12" height="12" rx="2" fill="#1D2536"/><rect x="454" y="152" width="12" height="12" rx="2" fill="#1D2536"/><rect x="454" y="167" width="12" height="12" rx="2" fill="#1D2536"/><rect x="454" y="182" width="12" height="12" rx="2" fill="#1D2536"/><rect x="469" y="92" width="12" height="12" rx="2" fill="#1D2536"/><rect x="469" y="107" width="12" height="12" rx="2" fill="#1D2536"/><rect x="469" y="122" width="12" height="12" rx="2" fill="#1D2536"/><rect x="469" y="137" width="12" height="12" rx="2" fill="#1D2536"/><rect x="469" y="152" width="12" height="12" rx="2" fill="#C98A4B"/><rect x="469" y="167" width="12" height="12" rx="2" fill="#1D2536"/><rect x="469" y="182" width="12" height="12" rx="2" fill="#3F4A63"/><rect x="484" y="92" width="12" height="12" rx="2" fill="#1D2536"/><rect x="484" y="107" width="12" height="12" rx="2" fill="#1D2536"/><rect x="484" y="122" width="12" height="12" rx="2" fill="#3F4A63"/><rect x="484" y="137" width="12" height="12" rx="2" fill="#1D2536"/><rect x="484" y="152" width="12" height="12" rx="2" fill="#3F4A63"/><rect x="484" y="167" width="12" height="12" rx="2" fill="#5C6883"/><rect x="484" y="182" width="12" height="12" rx="2" fill="#5C6883"/><rect x="499" y="92" width="12" height="12" rx="2" fill="#1D2536"/><rect x="499" y="107" width="12" height="12" rx="2" fill="#1D2536"/><rect x="499" y="122" width="12" height="12" rx="2" fill="#5C6883"/><rect x="499" y="137" width="12" height="12" rx="2" fill="#1D2536"/><rect x="499" y="152" width="12" height="12" rx="2" fill="#1D2536"/><rect x="499" y="167" width="12" height="12" rx="2" fill="#5C6883"/><rect x="499" y="182" width="12" height="12" rx="2" fill="#E0A458"/><rect x="514" y="92" width="12" height="12" rx="2" fill="#5C6883"/><rect x="514" y="107" width="12" height="12" rx="2" fill="#C98A4B"/><rect x="514" y="122" width="12" height="12" rx="2" fill="#E0A458"/><rect x="514" y="137" width="12" height="12" rx="2" fill="#5C6883"/><rect x="514" y="152" width="12" height="12" rx="2" fill="#1D2536"/><rect x="514" y="167" width="12" height="12" rx="2" fill="#1D2536"/><rect x="514" y="182" width="12" height="12" rx="2" fill="#1D2536"/><rect x="529" y="92" width="12" height="12" rx="2" fill="#5C6883"/><rect x="529" y="107" width="12" height="12" rx="2" fill="#E0A458"/><rect x="529" y="122" width="12" height="12" rx="2" fill="#E0A458"/><rect x="529" y="137" width="12" height="12" rx="2" fill="#C98A4B"/><rect x="529" y="152" width="12" height="12" rx="2" fill="#E0A458"/><rect x="529" y="167" width="12" height="12" rx="2" fill="#E0A458"/><rect x="529" y="182" width="12" height="12" rx="2" fill="#C98A4B"/><rect x="544" y="92" width="12" height="12" rx="2" fill="#E0A458"/><rect x="544" y="107" width="12" height="12" rx="2" fill="#1D2536"/><rect x="544" y="122" width="12" height="12" rx="2" fill="#1D2536"/><rect x="544" y="137" width="12" height="12" rx="2" fill="#1D2536"/><rect x="544" y="152" width="12" height="12" rx="2" fill="#1D2536"/><rect x="544" y="167" width="12" height="12" rx="2" fill="#1D2536"/><rect x="544" y="182" width="12" height="12" rx="2" fill="#1D2536"/><rect x="559" y="92" width="12" height="12" rx="2" fill="#1D2536"/><rect x="559" y="107" width="12" height="12" rx="2" fill="#1D2536"/><rect x="559" y="122" width="12" height="12" rx="2" fill="#1D2536"/><rect x="559" y="137" width="12" height="12" rx="2" fill="#1D2536"/><rect x="559" y="152" width="12" height="12" rx="2" fill="#1D2536"/><rect x="559" y="167" width="12" height="12" rx="2" fill="#3F4A63"/><rect x="559" y="182" width="12" height="12" rx="2" fill="#C98A4B"/><rect x="574" y="92" width="12" height="12" rx="2" fill="#1D2536"/><rect x="574" y="107" width="12" height="12" rx="2" fill="#1D2536"/><rect x="574" y="122" width="12" height="12" rx="2" fill="#1D2536"/><rect x="574" y="137" width="12" height="12" rx="2" fill="#1D2536"/><rect x="574" y="152" width="12" height="12" rx="2" fill="#1D2536"/><rect x="574" y="167" width="12" height="12" rx="2" fill="#5C6883"/><rect x="574" y="182" width="12" height="12" rx="2" fill="#3F4A63"/><rect x="589" y="92" width="12" height="12" rx="2" fill="#E0A458"/><rect x="589" y="107" width="12" height="12" rx="2" fill="#E0A458"/><rect x="589" y="122" width="12" height="12" rx="2" fill="#1D2536"/><rect x="589" y="137" width="12" height="12" rx="2" fill="#1D2536"/><rect x="589" y="152" width="12" height="12" rx="2" fill="#1D2536"/><rect x="589" y="167" width="12" height="12" rx="2" fill="#5C6883"/><rect x="589" y="182" width="12" height="12" rx="2" fill="#1D2536"/><rect x="604" y="92" width="12" height="12" rx="2" fill="#E0A458"/><rect x="604" y="107" width="12" height="12" rx="2" fill="#E0A458"/><rect x="604" y="122" width="12" height="12" rx="2" fill="#1D2536"/><rect x="604" y="137" width="12" height="12" rx="2" fill="#1D2536"/><rect x="604" y="152" width="12" height="12" rx="2" fill="#1D2536"/><rect x="604" y="167" width="12" height="12" rx="2" fill="#5C6883"/><rect x="604" y="182" width="12" height="12" rx="2" fill="#3F4A63"/><rect x="619" y="92" width="12" height="12" rx="2" fill="#E0A458"/><rect x="619" y="107" width="12" height="12" rx="2" fill="#1D2536"/><rect x="619" y="122" width="12" height="12" rx="2" fill="#1D2536"/><rect x="619" y="137" width="12" height="12" rx="2" fill="#1D2536"/><rect x="619" y="152" width="12" height="12" rx="2" fill="#1D2536"/><rect x="619" y="167" width="12" height="12" rx="2" fill="#1D2536"/><rect x="619" y="182" width="12" height="12" rx="2" fill="#1D2536"/><rect x="634" y="92" width="12" height="12" rx="2" fill="#1D2536"/><rect x="634" y="107" width="12" height="12" rx="2" fill="#1D2536"/><rect x="634" y="122" width="12" height="12" rx="2" fill="#1D2536"/><rect x="634" y="137" width="12" height="12" rx="2" fill="#1D2536"/><rect x="634" y="152" width="12" height="12" rx="2" fill="#1D2536"/><rect x="634" y="167" width="12" height="12" rx="2" fill="#E0A458"/><rect x="634" y="182" width="12" height="12" rx="2" fill="#3F4A63"/><rect x="649" y="92" width="12" height="12" rx="2" fill="#C98A4B"/><rect x="649" y="107" width="12" height="12" rx="2" fill="#1D2536"/><rect x="649" y="122" width="12" height="12" rx="2" fill="#C98A4B"/><rect x="649" y="137" width="12" height="12" rx="2" fill="#3F4A63"/><rect x="649" y="152" width="12" height="12" rx="2" fill="#1D2536"/><rect x="649" y="167" width="12" height="12" rx="2" fill="#1D2536"/><rect x="649" y="182" width="12" height="12" rx="2" fill="#1D2536"/><rect x="664" y="92" width="12" height="12" rx="2" fill="#1D2536"/><rect x="664" y="107" width="12" height="12" rx="2" fill="#E0A458"/><rect x="664" y="122" width="12" height="12" rx="2" fill="#1D2536"/><rect x="664" y="137" width="12" height="12" rx="2" fill="#1D2536"/><rect x="664" y="152" width="12" height="12" rx="2" fill="#1D2536"/><rect x="664" y="167" width="12" height="12" rx="2" fill="#5C6883"/><rect x="664" y="182" width="12" height="12" rx="2" fill="#C98A4B"/><rect x="679" y="92" width="12" height="12" rx="2" fill="#E0A458"/><rect x="679" y="107" width="12" height="12" rx="2" fill="#E0A458"/><rect x="679" y="122" width="12" height="12" rx="2" fill="#1D2536"/><rect x="679" y="137" width="12" height="12" rx="2" fill="#5C6883"/><rect x="679" y="152" width="12" height="12" rx="2" fill="#3F4A63"/><rect x="679" y="167" width="12" height="12" rx="2" fill="#1D2536"/><rect x="679" y="182" width="12" height="12" rx="2" fill="#1D2536"/><rect x="694" y="92" width="12" height="12" rx="2" fill="#5C6883"/><rect x="694" y="107" width="12" height="12" rx="2" fill="#1D2536"/><rect x="694" y="122" width="12" height="12" rx="2" fill="#5C6883"/><rect x="694" y="137" width="12" height="12" rx="2" fill="#1D2536"/><rect x="694" y="152" width="12" height="12" rx="2" fill="#1D2536"/><rect x="694" y="167" width="12" height="12" rx="2" fill="#C98A4B"/><rect x="694" y="182" width="12" height="12" rx="2" fill="#1D2536"/><rect x="709" y="92" width="12" height="12" rx="2" fill="#5C6883"/><rect x="709" y="107" width="12" height="12" rx="2" fill="#5C6883"/><rect x="709" y="122" width="12" height="12" rx="2" fill="#3F4A63"/><rect x="709" y="137" width="12" height="12" rx="2" fill="#3F4A63"/><rect x="709" y="152" width="12" height="12" rx="2" fill="#3F4A63"/><rect x="709" y="167" width="12" height="12" rx="2" fill="#5C6883"/><rect x="709" y="182" width="12" height="12" rx="2" fill="#1D2536"/><rect x="724" y="92" width="12" height="12" rx="2" fill="#5C6883"/><rect x="724" y="107" width="12" height="12" rx="2" fill="#1D2536"/><rect x="724" y="122" width="12" height="12" rx="2" fill="#1D2536"/><rect x="724" y="137" width="12" height="12" rx="2" fill="#1D2536"/><rect x="724" y="152" width="12" height="12" rx="2" fill="#3F4A63"/><rect x="724" y="167" width="12" height="12" rx="2" fill="#1D2536"/><rect x="724" y="182" width="12" height="12" rx="2" fill="#1D2536"/><rect x="739" y="92" width="12" height="12" rx="2" fill="#1D2536"/><rect x="739" y="107" width="12" height="12" rx="2" fill="#1D2536"/><rect x="739" y="122" width="12" height="12" rx="2" fill="#1D2536"/><rect x="739" y="137" width="12" height="12" rx="2" fill="#1D2536"/><rect x="739" y="152" width="12" height="12" rx="2" fill="#1D2536"/><rect x="739" y="167" width="12" height="12" rx="2" fill="#1D2536"/><rect x="739" y="182" width="12" height="12" rx="2" fill="#1D2536"/><rect x="754" y="92" width="12" height="12" rx="2" fill="#C98A4B"/><rect x="754" y="107" width="12" height="12" rx="2" fill="#E0A458"/><rect x="754" y="122" width="12" height="12" rx="2" fill="#1D2536"/><rect x="754" y="137" width="12" height="12" rx="2" fill="#1D2536"/><rect x="754" y="152" width="12" height="12" rx="2" fill="#1D2536"/><rect x="754" y="167" width="12" height="12" rx="2" fill="#1D2536"/><rect x="754" y="182" width="12" height="12" rx="2" fill="#E0A458"/><rect x="769" y="92" width="12" height="12" rx="2" fill="#1D2536"/><rect x="769" y="107" width="12" height="12" rx="2" fill="#1D2536"/><rect x="769" y="122" width="12" height="12" rx="2" fill="#1D2536"/><rect x="769" y="137" width="12" height="12" rx="2" fill="#1D2536"/><rect x="769" y="152" width="12" height="12" rx="2" fill="#1D2536"/><rect x="769" y="167" width="12" height="12" rx="2" fill="#1D2536"/><rect x="769" y="182" width="12" height="12" rx="2" fill="#1D2536"/><rect x="784" y="92" width="12" height="12" rx="2" fill="#1D2536"/><rect x="784" y="107" width="12" height="12" rx="2" fill="#1D2536"/><rect x="784" y="122" width="12" height="12" rx="2" fill="#1D2536"/><rect x="784" y="137" width="12" height="12" rx="2" fill="#1D2536"/><rect x="784" y="152" width="12" height="12" rx="2" fill="#1D2536"/><rect x="784" y="167" width="12" height="12" rx="2" fill="#5C6883"/><rect x="784" y="182" width="12" height="12" rx="2" fill="#3F4A63"/><rect x="799" y="92" width="12" height="12" rx="2" fill="#1D2536"/><rect x="799" y="107" width="12" height="12" rx="2" fill="#1D2536"/><rect x="799" y="122" width="12" height="12" rx="2" fill="#1D2536"/><rect x="799" y="137" width="12" height="12" rx="2" fill="#1D2536"/><rect x="799" y="152" width="12" height="12" rx="2" fill="#1D2536"/><rect x="799" y="167" width="12" height="12" rx="2" fill="#1D2536"/><rect x="799" y="182" width="12" height="12" rx="2" fill="#1D2536"/><rect x="814" y="92" width="12" height="12" rx="2" fill="#1D2536"/><rect x="814" y="107" width="12" height="12" rx="2" fill="#3F4A63"/><rect x="814" y="122" width="12" height="12" rx="2" fill="#1D2536"/><rect x="814" y="137" width="12" height="12" rx="2" fill="#1D2536"/><rect x="814" y="152" width="12" height="12" rx="2" fill="#1D2536"/><rect x="814" y="167" width="12" height="12" rx="2" fill="#1D2536"/><rect x="814" y="182" width="12" height="12" rx="2" fill="#3F4A63"/><rect x="829" y="92" width="12" height="12" rx="2" fill="#1D2536"/><rect x="829" y="107" width="12" height="12" rx="2" fill="#1D2536"/><rect x="829" y="122" width="12" height="12" rx="2" fill="#1D2536"/><rect x="829" y="137" width="12" height="12" rx="2" fill="#E0A458"/><rect x="829" y="152" width="12" height="12" rx="2" fill="#3F4A63"/><rect x="829" y="167" width="12" height="12" rx="2" fill="#1D2536"/><rect x="829" y="182" width="12" height="12" rx="2" fill="#1D2536"/><rect x="844" y="92" width="12" height="12" rx="2" fill="#1D2536"/><rect x="844" y="107" width="12" height="12" rx="2" fill="#1D2536"/><rect x="844" y="122" width="12" height="12" rx="2" fill="#1D2536"/><rect x="844" y="137" width="12" height="12" rx="2" fill="#C98A4B"/><rect x="844" y="152" width="12" height="12" rx="2" fill="#1D2536"/><rect x="844" y="167" width="12" height="12" rx="2" fill="#1D2536"/><rect x="844" y="182" width="12" height="12" rx="2" fill="#1D2536"/><line x1="28" y1="209" x2="872" y2="209" stroke="#2A3348"/><text x="28" y="227" font-family="'JetBrains Mono','Berkeley Mono',ui-monospace,SFMono-Regular,Menlo,Consolas,monospace" font-size="11" fill="#7C89A6">549 contributions · longest streak 8d · synced 08 Aug 2026 · 12:27Z</text><text x="754" y="227" font-family="'JetBrains Mono','Berkeley Mono',ui-monospace,SFMono-Regular,Menlo,Consolas,monospace" font-size="10" fill="#3F4A63">Less</text><rect x="788" y="218" width="11" height="11" rx="2" fill="#1D2536"/><rect x="802" y="218" width="11" height="11" rx="2" fill="#3F4A63"/><rect x="816" y="218" width="11" height="11" rx="2" fill="#5C6883"/><rect x="830" y="218" width="11" height="11" rx="2" fill="#C98A4B"/><rect x="844" y="218" width="11" height="11" rx="2" fill="#E0A458"/><text x="872" y="227" text-anchor="end" font-family="'JetBrains Mono','Berkeley Mono',ui-monospace,SFMono-Regular,Menlo,Consolas,monospace" font-size="10" fill="#3F4A63">More</text></g></svg>